PathFileType  4	(X/Y/Z) C:\Users\antoi\Documents\MyRepositories\mobilecap\ResultsAnalysis
DataRate	CameraRate	NumFrames	NumMarkers	Units	OrigDataRate	OrigDataStartFrame	OrigNumFrames
100.0	100.0	4	51	mm	100.0	70	138
Frame#	Time	r_knee			r_shank_antsup			r_ankle			r_calc			r_5meta			r_toe			L_knee			L_shank_antsup			L_ankle			L_calc			L_5meta			L_toe			r_sh2			r_sh3			r_sh4			L_sh2			L_sh3			r_thigh1			r_thigh2			r_thigh3			r_thigh4			r_thigh5			L_thigh1			L_thigh2			L_thigh3			L_thigh4			r.ASIS			r.PSIS			L.ASIS			L.PSIS			C7			R_Shoulder			L_Shoulder			R_Sternum			L_Sternum			R_humerus			R_elbow_med			R_elbow_lat			R_forearm			R_wrist_radius			R_wrist_ulna			L_humerus			L_elbow_med			L_elbow_lat			L_forearm			L_wrist_radius			L_wrist_ulna			R_HJC			L_HJC			R_HJC_reg			L_HJC_reg			
		X1	Y1	Z1	X2	Y2	Z2	X3	Y3	Z3	X4	Y4	Z4	X5	Y5	Z5	X6	Y6	Z6	X7	Y7	Z7	X8	Y8	Z8	X9	Y9	Z9	X10	Y10	Z10	X11	Y11	Z11	X12	Y12	Z12	X13	Y13	Z13	X14	Y14	Z14	X15	Y15	Z15	X16	Y16	Z16	X17	Y17	Z17	X18	Y18	Z18	X19	Y19	Z19	X20	Y20	Z20	X21	Y21	Z21	X22	Y22	Z22	X23	Y23	Z23	X24	Y24	Z24	X25	Y25	Z25	X26	Y26	Z26	X27	Y27	Z27	X28	Y28	Z28	X29	Y29	Z29	X30	Y30	Z30	X31	Y31	Z31	X32	Y32	Z32	X33	Y33	Z33	X34	Y34	Z34	X35	Y35	Z35	X36	Y36	Z36	X37	Y37	Z37	X38	Y38	Z38	X39	Y39	Z39	X40	Y40	Z40	X41	Y41	Z41	X42	Y42	Z42	X43	Y43	Z43	X44	Y44	Z44	X45	Y45	Z45	X46	Y46	Z46	X47	Y47	Z47	X48	Y48	Z48	X49	Y49	Z49	X50	Y50	Z50	X51	Y51	Z51	

70	0.69000000	538.50013	441.16696	-137.02871	487.65646	325.19887	-153.26778	245.63443	192.75263	-189.04482	194.74546	208.15211	-247.28068	265.12469	63.63907	-165.18484	305.44140	49.71050	-207.15167	808.28144	470.62243	-399.75669	856.27300	377.40507	-344.13423	808.15777	82.64291	-361.25113	758.55306	50.13535	-308.98896	928.98343	36.79152	-361.15915	963.35232	62.57473	-307.27935	404.17896	254.74518	-173.31262	442.96094	365.87504	-107.66818	348.61557	310.29029	-137.87535	816.19961	388.15958	-422.05122	821.12320	267.67184	-426.52874	695.31004	721.15376	-124.48563	681.66595	610.61240	-126.15209	627.27089	592.73401	-90.50670	589.36238	730.04545	-84.98424	573.89010	616.08029	-90.81554	772.16440	765.85022	-433.13641	828.60135	642.66564	-415.54375	675.10019	724.10956	-470.47410	733.66295	596.30228	-446.45495	739.53219	891.88607	-144.87746	559.59206	946.55916	-216.69208	753.39858	921.18009	-387.51254	559.51270	952.62606	-333.93100	561.40912	1395.72278	-258.30461	629.53184	1368.41673	-112.18482	606.27361	1373.84707	-423.04073	692.34096	1354.96180	-251.19810	690.03502	1352.99633	-295.37369	669.38086	1245.22972	-49.74020	629.06348	1034.90432	-88.50700	661.35389	1050.57098	-21.87158	761.39895	968.12974	-22.49620	835.34764	897.06666	-39.92123	812.58940	873.11268	-20.12770	605.20516	1222.90395	-488.78205	536.22306	1040.88182	-412.40841	526.32900	1052.25654	-485.75745	542.94850	963.12752	-527.29552	545.49193	831.18684	-536.03722	514.02508	835.18853	-541.61969	650.87673	825.20475	-182.89636	665.45606	841.78932	-370.99091	669.68599	836.16349	-181.57392	669.57895	844.50914	-342.93092	
71	0.70000000	563.75550	438.36831	-136.54682	510.21987	324.14343	-152.36885	264.38285	201.18670	-187.20921	215.70361	221.57211	-245.23328	273.62598	70.64345	-164.87132	311.61752	52.71885	-207.00550	815.05230	470.81476	-400.12832	861.05720	376.55110	-343.73468	808.75207	82.82658	-361.02547	758.66269	50.10387	-308.97213	929.01652	36.89662	-361.42854	963.51477	61.96399	-307.07030	424.14384	256.62854	-172.28067	466.73460	366.66350	-106.89827	370.32776	314.20911	-136.59719	822.32677	387.95893	-422.07579	825.55503	267.47371	-426.35377	712.24765	722.26774	-125.99316	701.99738	611.37672	-126.29581	647.96104	592.18451	-90.42504	605.94304	728.43020	-86.07794	594.03187	614.02601	-91.05431	784.51865	766.71102	-433.63283	838.39345	642.50862	-416.05875	686.96141	726.92057	-471.53614	742.94721	597.70823	-447.34560	752.78962	893.57328	-146.46965	573.11120	948.39904	-216.68171	766.76400	923.79902	-388.45330	572.97771	955.30707	-334.04564	573.41261	1398.04829	-258.92590	641.90341	1370.97664	-112.93769	618.41025	1376.30172	-423.46530	704.47148	1357.53520	-251.85342	702.20982	1355.66683	-295.98449	681.01083	1247.52092	-50.49928	638.25860	1038.07133	-90.57979	670.41226	1052.67703	-23.60919	767.85126	966.97994	-23.41293	839.25834	893.33117	-40.23752	815.43366	870.37295	-20.42961	618.91097	1225.51674	-489.32040	552.05116	1042.63791	-413.10005	542.28045	1053.67859	-486.47994	560.79206	964.84041	-527.88880	565.93998	833.04095	-536.37356	534.48874	836.31917	-541.95198	664.39999	826.95079	-184.09359	678.54297	844.51592	-372.13539	683.20172	837.78873	-183.47723	683.01567	847.25521	-344.41955	
72	0.71000000	589.55622	435.78122	-135.92082	533.76065	323.19751	-151.50094	284.54621	209.39169	-185.28958	238.00267	234.37274	-242.93030	284.34841	78.27286	-164.31881	319.76772	56.62800	-206.80291	820.73072	470.78081	-400.61045	865.04100	375.64248	-343.55037	809.19740	82.97495	-360.70432	758.71437	50.08782	-308.96142	928.98527	36.99601	-361.57475	963.64865	61.47764	-306.81535	445.29763	258.71014	-171.23918	491.44195	367.54752	-105.97205	393.47555	317.85930	-135.32068	827.35507	387.62173	-422.15345	829.05004	267.12078	-426.17292	729.06899	723.54321	-127.15216	722.34437	612.37355	-125.85808	668.58236	591.80840	-89.99327	622.25244	726.80898	-87.03012	614.14954	612.02471	-91.07662	796.48022	767.30879	-433.85934	847.49835	641.94234	-416.40878	698.44585	729.80049	-472.53080	751.34321	599.03645	-448.13256	765.59330	895.22013	-147.73281	586.27538	950.18830	-216.93098	780.02219	926.11433	-389.05759	586.31873	958.01736	-334.39990	585.26318	1400.44477	-259.56448	653.88028	1373.51747	-113.64462	630.65565	1378.78442	-423.88053	716.46720	1360.13087	-252.35034	714.32630	1358.37026	-296.45371	692.44827	1249.82362	-51.27228	647.33401	1041.30362	-92.50464	679.49014	1054.87054	-25.31092	774.07009	965.90757	-24.25294	842.71809	889.65229	-40.44265	817.76584	867.79467	-20.61659	632.79740	1228.18470	-489.87452	567.84140	1044.50474	-413.88230	558.31812	1055.19850	-487.30965	578.87424	966.66397	-528.52424	586.85791	835.20591	-536.75119	555.47637	837.52231	-542.28314	677.38731	828.68574	-185.16953	691.51397	847.05620	-373.13411	696.29222	839.17134	-185.26010	696.34452	849.85955	-345.75874	
73	0.72000000	615.67440	433.60193	-135.13568	558.07927	322.44375	-150.67035	305.90065	217.24177	-183.35376	261.14079	246.11929	-240.46528	297.78199	86.16092	-163.52512	330.72443	61.43262	-206.49244	825.58616	470.62246	-401.17554	868.40179	374.74636	-343.66230	809.49324	83.08326	-360.37318	758.71232	50.10958	-308.97371	928.92023	37.04358	-361.63220	963.75960	61.06712	-306.55949	467.48941	261.01817	-170.20307	516.96287	368.53707	-104.92424	417.93252	321.21673	-134.08262	831.39499	387.19718	-422.37253	831.69718	266.67402	-426.07469	745.66230	725.04689	-127.94020	742.46040	613.66738	-124.88487	688.93492	591.70424	-89.24863	638.21705	725.30216	-87.86498	634.04523	610.22641	-90.91589	807.99159	767.74671	-433.84927	856.08898	641.17586	-416.57940	709.60346	732.66672	-473.50253	759.04215	600.41552	-448.82110	778.00992	896.79748	-148.60441	599.09122	951.86709	-217.42162	793.12891	928.09114	-389.32173	599.48920	960.71354	-334.96195	597.01061	1402.80777	-260.23401	665.45080	1375.95650	-114.27760	643.05663	1381.22985	-424.29652	728.36457	1362.69778	-252.67096	726.41432	1361.04050	-296.76444	703.62572	1252.04098	-52.02546	656.28146	1044.46581	-94.24674	688.59556	1057.04615	-26.95229	780.09426	964.88837	-25.00214	845.81178	886.04481	-40.50837	819.70207	865.35764	-20.68802	646.88617	1230.82706	-490.44376	583.56614	1046.40192	-414.77283	574.42324	1056.75464	-488.25641	597.16999	968.52453	-529.20707	608.20875	837.65179	-537.20261	576.97596	838.72340	-542.62482	689.87261	830.37286	-186.08522	704.36022	849.36177	-373.95639	709.02212	840.22956	-186.85115	709.55567	852.26660	-346.90724	
